<mxfile host="app.diagrams.net" modified="2023-11-16T03:18:45.823Z" agent="Mozilla/5.0 (Macintosh; Intel Mac OS X 10_15_7) AppleWebKit/537.36 (KHTML, like Gecko) Chrome/119.0.0.0 Safari/537.36" etag="IGBSA8Fgrd6LxyaS52HP" version="22.1.2" type="github">
  <diagram name="第 1 页" id="BiD_fk28OD65gipSYwYe">
    <mxGraphModel dx="1434" dy="765" grid="1" gridSize="10" guides="1" tooltips="1" connect="1" arrows="1" fold="1" page="1" pageScale="1" pageWidth="827" pageHeight="1169" math="0" shadow="0">
      <root>
        <mxCell id="0" />
        <mxCell id="1" parent="0" />
        <mxCell id="_UMWHOuVLlkQYuxDZA_q-3" value="" style="edgeStyle=orthogonalEdgeStyle;rounded=0;orthogonalLoop=1;jettySize=auto;html=1;" edge="1" parent="1" source="_UMWHOuVLlkQYuxDZA_q-1" target="_UMWHOuVLlkQYuxDZA_q-2">
          <mxGeometry relative="1" as="geometry" />
        </mxCell>
        <mxCell id="_UMWHOuVLlkQYuxDZA_q-1" value="" style="whiteSpace=wrap;html=1;aspect=fixed;" vertex="1" parent="1">
          <mxGeometry x="300" y="150" width="80" height="80" as="geometry" />
        </mxCell>
        <mxCell id="_UMWHOuVLlkQYuxDZA_q-2" value="" style="whiteSpace=wrap;html=1;aspect=fixed;" vertex="1" parent="1">
          <mxGeometry x="300" y="310" width="80" height="80" as="geometry" />
        </mxCell>
      </root>
    </mxGraphModel>
  </diagram>
</mxfile>
